<svg width="100" height="100" viewBox="0 0 100 100" fill="none" xmlns="http://www.w3.org/2000/svg">
<circle cx="50" cy="50" r="50" fill="#1D1A1A"/>
<path d="M10.5708 75V71.001L15.7441 70.1123V33.7085L10.5708 32.8198V28.7891H30.5024C35.3267 28.7891 39.0929 29.8364 41.8013 31.9312C44.5308 34.0047 45.8955 37.1257 45.8955 41.2939C45.8955 43.3464 45.2396 45.1872 43.9277 46.8164C42.637 48.4245 40.9232 49.62 38.7861 50.4028C41.5579 50.9953 43.7479 52.36 45.356 54.4971C46.964 56.6341 47.7681 59.1203 47.7681 61.9556C47.7681 66.1873 46.3927 69.4246 43.6421 71.6675C40.8914 73.8892 37.1675 75 32.4702 75H10.5708ZM21.9966 48.4351H32.1211C34.3639 48.4351 36.173 47.7897 37.5483 46.499C38.9448 45.1872 39.6431 43.4098 39.6431 41.167C39.6431 38.6702 38.8602 36.8083 37.2944 35.5811C35.7287 34.3327 33.4647 33.7085 30.5024 33.7085H21.9966V48.4351ZM21.9966 70.1123H32.4702C35.3267 70.1123 37.5378 69.4141 39.1035 68.0176C40.6904 66.5999 41.4839 64.6004 41.4839 62.019C41.4839 59.3107 40.8174 57.1842 39.4844 55.6396C38.1725 54.0951 36.1519 53.3228 33.4224 53.3228H21.9966V70.1123ZM52.5288 75V71.001L57.7021 70.1123V33.7085L52.5288 32.8198V28.7891H70.6196C74.7033 28.7891 78.258 29.7624 81.2837 31.709C84.3306 33.6556 86.7004 36.3322 88.3931 39.7388C90.0858 43.1453 90.9321 47.0386 90.9321 51.4185V52.4023C90.9321 56.6764 90.1175 60.5273 88.4883 63.9551C86.859 67.3617 84.5422 70.0594 81.5376 72.0483C78.5542 74.0161 75.0207 75 70.937 75H52.5288ZM63.9546 70.1123H70.6196C73.5396 70.1123 76.0469 69.3188 78.1416 67.7319C80.2363 66.1239 81.8444 63.9868 82.9658 61.3208C84.1084 58.6336 84.6797 55.6608 84.6797 52.4023V51.355C84.6797 47.9907 84.1084 44.9862 82.9658 42.3413C81.8444 39.6753 80.2363 37.57 78.1416 36.0254C76.0469 34.4808 73.5396 33.7085 70.6196 33.7085H63.9546V70.1123Z" fill="white"/>
</svg>
